<?xml version="1.0" encoding="iso-8859-1"?>
<!-- Generator: Adobe Illustrator 15.1.0, SVG Export Plug-In . SVG Version: 6.00 Build 0)  -->
<!DOCTYPE svg PUBLIC "-//W3C//DTD SVG 1.1//EN" "http://www.w3.org/Graphics/SVG/1.1/DTD/svg11.dtd">
<svg version="1.1" id="_x36_" xmlns="http://www.w3.org/2000/svg" xmlns:xlink="http://www.w3.org/1999/xlink" x="0px" y="0px"
	 width="512px" height="512px" viewBox="0 0 512 512" style="enable-background:new 0 0 512 512;" xml:space="preserve">
<g>
	<path style="fill:#221714;" d="M511.619,119.027c-2.137-26.41-12.011-52.155-29.631-72.095c-15.619-17.676-36.345-30.582-58.665-38
		c-27.537-9.152-57.228-8.67-85.565-3.936c-29.102,4.861-58.021,11.874-84.348,25.522c-28.805,14.931-55.335,36.092-74.098,62.747
		c-19.327-16.649-45.017-25.843-70.515-25.376C83.049,68.36,59.174,79.782,40.277,96.875c-19.354,17.502-32.53,40.173-37.495,65.843
		c-5.4,27.907-2.289,57.889,3.772,85.427c6.1,27.716,16.123,54.642,30.45,79.174c14.16,24.249,32.682,45.427,53.55,64.12
		c21.254,19.043,44.641,35.83,68.884,50.846c24.968,15.459,51.392,29.626,79.067,39.591c-4.601,5.517-8.309,8.824-2.833,15.096
		c3.441,3.938,7.887,7.181,12.488,9.646c6.893,3.699,14.406,5.995,20.659,0.129c3.469-3.26,6.968-6.483,10.472-9.708
		c2.58-2.376,2.834-2.358,6.24-1.527c3.018,0.732,6.035,1.452,9.055,2.167c10.304,2.442,20.62,4.81,30.892,7.376
		c3.078,0.769,12.315,3.002,12.753-2.362c0.562-6.861-9.058-12.874-14.285-15.192c-8.326-3.687-18.27-4.818-27.125-6.764
		c43.473-41.528,80.893-88.466,115.314-137.638c17.498-24.998,34.338-50.741,50.463-76.65c15.313-24.595,28.188-50.895,37.518-78.34
		C507.666,165.889,513.528,142.667,511.619,119.027C510.479,104.967,512.889,134.735,511.619,119.027z M470.886,120.834
		c-0.848,14.931-5.711,29.311-10.747,43.273c-5.054,13.998-10.627,27.766-17.111,41.168c-13.038,26.966-29.23,52.244-45.847,77.114
		c-33.442,50.05-68.287,99.483-108.891,144.059c-10.17,11.164-20.682,22.01-30.728,33.29c-2.383,2.678-4.747,5.369-7.097,8.078
		c-2.083,2.397-6.899-0.489-9.734-1.483c-7.417-2.594-14.718-5.516-21.895-8.723c-26.479-11.83-51.52-26.814-75.018-43.774
		c-21.822-15.754-42.518-33.277-59.398-54.354c-17.478-21.823-29.89-47-38.046-73.681c-8.651-28.303-12.825-58.395-11.524-87.995
		c1.177-26.722,11.707-51.254,29.986-70.78c17.821-19.03,43.275-33.963,70.034-33.313c6.724,0.164,14.864,0.919,20.722,5.134
		c2.566,1.852,4.783,4.17,6.715,6.475c1.541,1.839,2.896,3.811,4.224,5.805c1.841,2.807-0.413,5.271-1.595,8.221
		c-9.715,24.248-13.829,57.511,6.484,77.575c7.855,7.759,20.33,15.291,31.809,14.118c12.843-1.314,16.564-14.193,16.24-25.185
		c-0.38-12.83-2.444-25.9-6.096-38.197c-1.909-6.418-4.303-12.697-7.205-18.732c3.373-6.319,7.299-12.342,11.629-18.049
		c15.499-20.424,35.959-37.038,58.274-49.504c18.959-10.587,39.463-18.279,60.533-23.453c21.755-5.347,45.141-9.1,67.595-8.06
		c10.041,0.466,19.354,2.073,28.946,4.978c8.535,3.514,14.891,8.261,20.375,15.824C468.128,70.82,472.267,96.467,470.886,120.834
		C469.953,137.245,471.614,107.969,470.886,120.834z"/>
</g>
</svg>
