<?xml version="1.0" encoding="iso-8859-1"?>
<!-- Generator: Adobe Illustrator 15.1.0, SVG Export Plug-In . SVG Version: 6.00 Build 0)  -->
<!DOCTYPE svg PUBLIC "-//W3C//DTD SVG 1.1//EN" "http://www.w3.org/Graphics/SVG/1.1/DTD/svg11.dtd">
<svg version="1.1" id="_x34_" xmlns="http://www.w3.org/2000/svg" xmlns:xlink="http://www.w3.org/1999/xlink" x="0px" y="0px"
	 width="512px" height="512px" viewBox="0 0 512 512" style="enable-background:new 0 0 512 512;" xml:space="preserve">
<g>
	<path style="fill:#221714;" d="M463.292,60.186c-3.405-14.311-9.995-28.04-19.647-39.194c-9.229-10.669-21.609-17.142-35.423-19.66
		c-15.524-2.83-31.327-0.903-46.376,3.464c-7.96,2.309-15.587,5.309-23.162,8.655c-7.495,3.31-15.06,6.337-22.345,10.104
		c-39.819,20.587-74.264,53.399-97.677,91.561c-16.633-24.269-40.615-43.134-70.521-46.663
		c-29.616-3.496-59.047,9.024-78.795,31.021c-5.18,5.77-9.914,12.104-13.762,18.84c-3.905,6.839-6.283,14.416-7.977,22.08
		c-3.387,15.31-3.428,31.204-1.182,46.681c4.286,29.565,16.479,57.892,31.503,83.524c29.741,50.745,73.113,92.685,119.239,128.551
		c11.942,9.286,24.214,18.147,36.826,26.498c-12.51,11.604-25.3,22.903-37.932,34.377c-6.386,5.799-12.733,11.634-19.087,17.47
		c-3.05,2.798-6.102,5.597-9.156,8.39c-2.485,2.273-6.878,4.907-7.792,8.327c-1.278,4.778,2.184,10.207,5.345,13.525
		c1.575,1.66,3.473,3.387,5.707,4.077c3.188,0.982,5.343-2.165,7.445-4.059c12.568-11.305,25.4-22.313,38.205-33.346
		c10.763-9.271,21.507-18.564,32.061-28.07c2.509-2.263,5.011-4.535,7.498-6.825c3.152,1.79,6.343,3.514,9.572,5.16
		c5.971,3.042,12.088,5.95,18.341,8.361c2.918,1.126,5.913,2.088,8.989,2.666c1.865,0.352,6.342,1.68,7.679-0.291
		c1.917-2.818-0.629-7.778-2.363-10.033c-1.421-1.848-3.392-3.515-5.782-3.817c-3.28-0.412-6.335-0.969-9.491-2.042
		c-6.247-2.125-12.112-5.286-17.856-8.504c24.151-22.94,46.129-47.953,65.919-74.749c9.857-13.352,19.781-26.583,30.042-39.628
		c10.15-12.901,20.114-25.953,29.656-39.31c19.166-26.823,36.654-54.939,50.105-85.095c6.655-14.916,12.389-30.412,16.616-46.198
		c1.835-6.848,4.326-13.456,5.868-20.401c1.705-7.686,2.797-15.505,3.268-23.362C467.7,88.174,466.562,73.932,463.292,60.186
		C459.642,44.843,469.715,87.192,463.292,60.186z M432.819,31.867c-0.311-0.3-0.059-0.146,0.759,0.46
		C433.332,32.164,433.08,32.011,432.819,31.867C432.794,31.842,432.992,31.959,432.819,31.867z M227.047,165.852
		c2.262,9.218,3.291,19.041,2.557,28.516c-0.386,5.021-1.197,9.989-2.45,14.867c-1.148,4.469-3.244,8.586-4.533,13.006
		c0.075-0.218,0.132-0.438,0.176-0.661c-0.088,0.013-0.799,2.029-0.822,2.082c-0.789,1.676-1.778,3.162-2.887,4.64
		c-1.05,0.905-2.023,1.594-3.222,2.266c-1.22,0.684-1.571,0.548-1.897-0.799c-1.975-8.154-2.121-16.971-2.077-25.319
		c0.04-7.891,0.743-15.98,2.513-23.677c2.037-8.863,5.602-17.313,9.638-25.432C225.185,158.802,226.177,162.311,227.047,165.852
		C227.269,166.758,226.177,162.311,227.047,165.852z M447.272,85.109c-0.548,12.12-2.17,25.168-6.387,36.615
		c0.106-0.306,0.209-0.613,0.308-0.923c-5.152,15.679-9.604,31.373-16.089,46.594c-6.473,15.194-14.055,29.909-22.345,44.185
		c-16.367,28.172-35.639,54.522-55.644,80.196c-5.081,6.523-10.378,12.887-15.353,19.495c-5,6.642-9.711,13.506-14.623,20.213
		c-9.828,13.419-19.993,26.593-30.691,39.332c-10.171,12.108-20.978,23.547-32.033,34.846c-2.852,2.916-5.714,5.818-8.608,8.69
		c-0.722,0.718-1.446,1.437-2.176,2.148c-1.077,1.057-1.216,0.397-2.345-0.346c-1.89-1.242-3.769-2.5-5.638-3.773
		c-6.875-4.682-13.619-9.554-20.278-14.535c-50.627-37.87-99.761-82.458-129.896-138.882c-9.705-18.175-17.48-37.298-21.598-57.537
		c0.04,0.2,0.081,0.399,0.121,0.598c-2.861-15.245-3.399-30.76-0.216-45.991c2.959-14.152,10.264-26.844,19.954-37.479
		c18.446-20.245,46.616-32.776,74.203-28.327c13.964,2.251,27.456,8.26,37.797,18.043c5.121,4.839,9.443,10.663,13.334,16.51
		c0.831,1.249,2.483,2.78,1.755,4.187c-0.847,1.627-1.671,3.262-2.475,4.909c-1.824,3.738-3.556,7.521-5.146,11.364
		c-6.333,15.292-9.352,30.862-9.418,47.403c-0.059,15.01,0.671,30.605,8.063,44.031c4.041,7.339,11.074,15.842,20.053,16.614
		c10.251,0.883,16.253-8.667,18.646-17.33c-0.337,1.3,0.297-0.48,0.253-0.357c0.383-0.892,0.747-1.789,1.099-2.694
		c0.699-1.812,1.33-3.65,1.897-5.508c1.228-4.029,2.146-8.146,2.778-12.308c1.232-8.096,1.357-16.334,0.636-24.483
		c-1.425-16.146-5.953-32.032-12.514-46.824c-0.645-1.445-2.388-3.751-1.563-5.143c0.908-1.533,1.835-3.056,2.78-4.566
		c2.047-3.273,4.18-6.489,6.392-9.652c4.253-6.079,8.801-11.951,13.609-17.604c9.619-11.312,20.264-21.739,31.679-31.23
		c9.579-7.965,19.696-15.28,30.375-21.706c11.355-6.833,23.271-12.176,35.438-17.37c22.048-9.415,48.266-17.023,71.845-8.545
		c-0.574-0.203,0.484,0.205,0.499,0.211c0.586,0.229,1.155,0.462,1.729,0.729c1.642,0.77,4.004,1.642,5.299,2.938
		c-0.104-0.119-0.199-0.142-0.287-0.063c0.095,0.37,1.313,1.15,1.161,0.958C446.23,46.079,448.065,67.66,447.272,85.109
		C447.113,88.61,447.312,84.291,447.272,85.109z"/>
</g>
</svg>
