<?xml version="1.0" encoding="iso-8859-1"?>
<!-- Generator: Adobe Illustrator 15.1.0, SVG Export Plug-In . SVG Version: 6.00 Build 0)  -->
<!DOCTYPE svg PUBLIC "-//W3C//DTD SVG 1.1//EN" "http://www.w3.org/Graphics/SVG/1.1/DTD/svg11.dtd">
<svg version="1.1" id="_x36_" xmlns="http://www.w3.org/2000/svg" xmlns:xlink="http://www.w3.org/1999/xlink" x="0px" y="0px"
	 width="512px" height="512px" viewBox="0 0 512 512" style="enable-background:new 0 0 512 512;" xml:space="preserve">
<g>
	<path style="fill:#0E0F0F;" d="M395.022,454.013c5.67-14.605,11.511-28.597,16.12-42.933c4.741-14.259,7.836-28.898,8.984-43.563
		c1.162-14.662,0.282-29.384-2.893-43.734c-0.768-3.594-1.813-7.12-2.757-10.69c-0.888-3.574-0.633-7.635-1.563-11.335
		c-0.971-3.677-2.924-6.95-4.558-10.353c-1.703-3.373-3.634-6.64-5.638-9.864c-3.999-6.478-8.61-12.528-13.238-18.9
		c-2.323-3.259-4.688-6.356-7.003-10.634c-0.574-1.112-1.151-2.298-1.659-3.886c-0.448-1.581-1.066-3.612-0.482-6.817l0.958-3.604
		l0.796-2.813c4.126-14.829,8.699-29.564,12.609-44.413c7.904-29.608,14.77-59.805,15.049-90.239
		c-0.027-15.108-1.546-30.403-6.838-44.198c-2.708-6.838-6.182-13.25-10.455-18.835c-4.303-5.557-9.37-10.251-14.981-13.846
		c-5.576-3.634-11.83-6.13-18.34-7.165c-6.498-1-13.256-0.546-19.09,1.715c-5.63,2.132-9.811,6.015-12.384,11.715
		c-2.621,5.677-3.694,12.785-4.045,20.058c-0.637,14.682,1.281,30.138,2.531,45.689c1.293,15.596,2.744,31.395,1.72,47.635
		c-0.999,16.076-4.058,31.809-8.397,47.066c-4.371,15.285-9.704,30.092-16.693,44.489c-0.848,1.742-2.947,2.47-4.691,1.625
		c-1.661-0.809-2.401-2.754-1.732-4.445l0.063-0.164c11.288-28.391,18.783-58.926,19.876-89.105
		c0.432-14.961-1.477-30.314-3.317-45.716c-1.886-15.451-4.042-31.059-3.751-47.606c0.276-8.247,1.151-16.936,4.856-25.59
		c1.854-4.286,4.552-8.5,8.103-11.984c3.561-3.516,7.774-6.125,12.269-7.958c17.448-6.817,37.079-3.607,51.889,6.432
		c7.402,5.045,13.359,11.776,17.89,19.056c4.566,7.284,7.801,15.11,10.127,23.024c4.768,15.797,6.909,31.885,7.463,47.905
		c1.075,32.059-3.139,63.846-10.257,94.682c-3.694,15.404-7.954,30.606-13.474,45.439l-1.034,2.744l-0.536,1.362l-0.268,0.682
		l-0.135,0.34l0.098-0.424c0.172-1.284-0.109-1.331-0.041-1.046c0.018,0.292,0.201,0.912,0.448,1.563
		c1.073,2.756,3.026,6.182,4.896,9.495c3.869,6.701,7.782,13.724,11.484,20.814c1.854,3.55,3.609,7.164,5.358,10.781
		c1.821,3.593,3.095,7.419,5.097,10.952c2.039,3.512,5.003,6.773,6.537,10.61c1.478,3.842,2.563,7.826,3.624,11.81
		c4.173,15.976,5.495,32.779,3.933,49.187c-1.524,16.436-5.881,32.372-11.884,47.38c-6.128,14.966-14.277,29.009-24.591,41.179
		l-0.017,0.022c-1.272,1.499-3.519,1.683-5.018,0.414C394.854,457.01,394.493,455.388,395.022,454.013z"/>
	<path style="fill:#0E0F0F;" d="M252.507,213.512c-3.08-38.771-4.383-77.06-11.251-113.958
		c-3.582-18.299-8.299-36.428-16.745-52.153c-4.166-7.833-9.382-14.983-15.833-20.34c-6.413-5.354-14.216-8.73-22.349-8.815
		c-8.015,0.007-16.684,3.043-21.035,9.25c-4.472,6.263-5.964,15.659-4.778,24.759c1.373,9.145,3.651,18.345,5.814,27.686
		c2.225,9.296,4.893,18.737,6.812,28.575c3.584,19.479,5.991,38.966,6.929,58.668c0.453,9.852,0.642,19.731,0.262,29.755
		c-0.206,5.021-0.544,10.068-1.25,15.258c-0.357,2.604-0.826,5.241-1.529,7.998c-0.792,2.793-1.509,5.604-3.778,9.151
		c-0.96,1.502-2.372,2.541-3.942,3.058l-0.262,0.083c-1.837,0.603-4.606,1.793-6.907,2.933c-2.403,1.181-4.785,2.487-7.118,3.896
		c-4.675,2.811-9.169,6.008-13.457,9.485c-8.598,6.944-16.22,15.16-22.924,24.079c-6.708,8.922-12.486,18.592-17.389,28.721
		c-4.984,10.066-8.684,20.336-10.676,31.161c-1.97,10.795-2.742,21.885-1.967,32.955c0.786,11.067,2.879,22.032,5.755,32.869
		c2.835,10.849,6.802,21.58,12.342,31.555c5.54,9.973,12.795,18.979,21.052,26.855c16.427,15.965,37.185,26.871,58.892,33.053
		c10.732,3.119,22.091,4.46,33.407,5.705c11.352,1.083,22.772,1.7,34.208,1.798c22.865,0.149,45.769-2.002,68.033-6.904
		c22.204-5.006,43.886-12.811,63.272-25.029c1.639-1.044,3.814-0.562,4.858,1.078c0.968,1.519,0.61,3.511-0.752,4.621
		c-18.708,15.164-41.178,25.348-64.318,31.638c-23.196,6.365-47.224,9.048-71.152,9.046c-23.929-0.143-47.971-2.859-71.057-11.227
		c-22.794-8.272-43.467-21.712-60.445-38.611c-8.502-8.471-15.99-17.857-22.871-27.722c-6.89-9.862-12.976-20.455-17.578-31.8
		c-4.565-11.357-7.243-23.48-8.36-35.747c-1.078-12.261-0.799-24.754,1.543-36.974c2.228-12.227,6.466-24.208,11.967-35.067
		c5.346-10.911,11.675-21.405,19.085-31.157c7.392-9.764,15.912-18.722,25.375-26.678c4.753-3.955,9.774-7.623,15.091-10.913
		c2.656-1.647,5.391-3.193,8.221-4.629c2.94-1.458,5.513-2.7,9.218-3.974l-4.2,3.139c0.38-0.534,1.095-2.44,1.536-4.313
		c0.466-1.95,0.838-4.094,1.147-6.292c0.6-4.416,0.923-9.054,1.11-13.719c0.355-9.354,0.181-18.879-0.26-28.393
		c-0.973-19.023-2.367-38.204-5.249-56.965c-1.286-9.294-3.386-18.668-5.155-28.342c-1.86-9.612-3.372-19.494-3.303-29.714
		c0.022-5.096-0.079-10.254,0.598-15.576c0.696-5.283,2.281-10.818,5.496-15.733c3.185-4.917,7.924-8.88,13.016-11.354
		c1.264-0.642,2.548-1.176,3.969-1.722c1.063-0.397,2.587-0.919,3.891-1.262c2.72-0.747,5.521-1.193,8.34-1.411
		c11.35-0.917,22.748,2.965,31.746,9.269c9.115,6.295,16.152,14.682,21.819,23.5c11.134,17.887,17.213,37.65,20.952,57.318
		c3.771,19.722,5.072,39.608,4.891,59.325c-0.27,19.719-2.028,39.336-5.738,58.619c-0.358,1.926-2.205,3.195-4.131,2.84
		C253.793,216.418,252.642,215.058,252.507,213.512z"/>
	<path style="fill:#0E0F0F;" d="M201.14,337.974c-0.186-6.468,11.298-14.52,27.438-11.295c16.14,3.224,19.367,11.3,11.298,17.755
		c-8.068,6.453-15.351,8.148-24.208,8.065C206.81,352.415,201.327,344.443,201.14,337.974z"/>
	<path style="fill:#0E0F0F;" d="M309.278,326.679c-9.55-1.593-12.912-22.602,3.228-24.214
		C328.646,300.854,328.647,329.907,309.278,326.679z"/>
	<path style="fill:#0E0F0F;" d="M165.634,318.607c-9.686,0-16.14-19.367,0-22.597S178.546,318.607,165.634,318.607z"/>
	<path style="fill:#0E0F0F;" d="M200.271,211.277l0.201-0.176l-0.24,0.206l-0.061,0.064l0.203-0.554
		c0.15-0.476,0.28-1.078,0.387-1.691c0.221-1.24,0.368-2.578,0.473-3.93c0.215-2.705,0.287-5.483,0.306-8.262
		c0.024-5.572-0.198-11.183-0.544-16.789c-0.74-11.208-1.933-22.405-3.558-33.504c-0.833-5.547-1.808-11.065-2.972-16.524
		c-1.095-5.552-2.673-10.595-4.048-16.495c-1.271-5.748-2.151-11.639-2.078-17.784c0.068-3.078,0.345-6.219,1.37-9.531
		c0.549-1.652,1.245-3.376,2.656-5.097c1.294-1.69,3.984-3.401,6.783-3.273c2.737,0.079,4.689,1.23,6.213,2.313
		c1.509,1.132,2.705,2.372,3.751,3.631c2.083,2.534,3.658,5.18,5.072,7.855c2.779,5.332,4.81,10.84,6.633,16.421
		c3.492,11.124,5.888,22.435,7.625,33.809c3.129,22.763,4.68,45.79,1.514,68.837c-0.226,1.646-1.745,2.798-3.391,2.572
		c-1.556-0.215-2.671-1.583-2.6-3.121l0.007-0.118c1.098-22.184-0.625-44.795-3.945-66.896c-1.691-11.051-3.864-22.042-7.106-32.598
		c-1.646-5.214-3.528-10.408-5.957-15.167c-1.21-2.347-2.561-4.602-4.072-6.463c-1.389-1.882-3.516-3.244-3.876-3.092
		c-0.086,0.01-0.086-0.093-0.559,0.402c-0.417,0.465-0.879,1.392-1.218,2.426c-0.684,2.112-0.992,4.675-1.058,7.257
		c-0.113,5.214,0.617,10.639,1.759,15.966c1.146,5.165,2.872,10.997,3.925,16.598c1.151,5.65,2.104,11.32,2.908,17
		c1.629,11.364,2.634,22.777,3.061,34.235c0.213,5.729,0.304,11.467,0.137,17.245c-0.088,2.891-0.23,5.783-0.539,8.728
		c-0.155,1.475-0.348,2.96-0.659,4.509c-0.159,0.779-0.338,1.558-0.635,2.436c-0.147,0.431-0.331,0.901-0.593,1.416
		c-0.194,0.328-0.23,0.461-0.62,0.965l-0.578,0.618l-0.204,0.167c-1.279,1.068-3.175,0.897-4.241-0.382
		c-1.049-1.254-0.899-3.117,0.326-4.19L200.271,211.277z"/>
	<path style="fill:#0E0F0F;" d="M326.416,227.812c1.803-2.014,3.275-5.047,4.648-7.968c1.357-2.975,2.579-6.057,3.711-9.174
		c2.26-6.238,4.164-12.638,5.771-19.102c3.139-12.908,5.248-26.188,5.235-39.219c-0.054-13.363-1.679-26.639-2.227-40.498
		c-0.104-3.479-0.138-6.993,0.176-10.639c0.341-3.631,0.907-7.449,2.884-11.369c0.979-1.936,2.499-3.886,4.491-5.312
		c1.997-1.456,4.291-2.25,6.513-2.612c5.296-0.607,9.329,1.505,12.595,3.827c6.476,4.916,10.222,11.619,12.927,18.333
		c2.649,6.782,4.105,13.819,4.871,20.837c1.487,14.064,0.354,28.07-2.067,41.673c-5.045,27.222-14.878,53.072-27.121,77.413
		c-0.748,1.485-2.559,2.088-4.046,1.338c-1.411-0.71-2.012-2.406-1.429-3.847c10.153-24.899,19.382-50.259,23.951-76.433
		c2.22-13.04,3.426-26.306,2.073-39.219c-0.671-6.439-1.982-12.78-4.244-18.636c-2.247-5.788-5.56-11.295-9.973-14.608
		c-2.107-1.646-4.733-2.534-6.26-2.303c-2.281,0.402-3.686,1.323-4.822,3.47c-2.25,4.459-2.396,11.433-2.306,17.877
		c0.343,13.211,1.822,26.908,1.705,40.654c-0.13,14.089-2.603,27.727-6.191,41.026c-1.821,6.641-3.933,13.197-6.433,19.637
		c-1.254,3.219-2.606,6.405-4.131,9.561c-1.598,3.131-3.092,6.307-5.844,9.34c-1.117,1.23-3.021,1.323-4.254,0.206
		C325.396,230.953,325.315,229.042,326.416,227.812z"/>
	<path style="fill:#0E0F0F;" d="M209.753,431.853c1.186,0.485,3.7,0.877,5.949,1.127c2.352,0.26,4.788,0.427,7.233,0.549
		c4.898,0.25,9.865,0.27,14.819,0.25c9.899-0.127,19.903-0.372,29.486-1.273c2.372-0.24,4.731-0.544,6.846-0.985l1.5-0.357
		l0.651-0.191l0.149-0.049l0.076-0.024l0.036-0.01c-0.227,0.098,0.562-0.24-0.497,0.22l0.43-0.2l0.578-0.304l-0.422,0.294
		l-0.003-0.005c0.26-0.133,0.521-1.951,0.248-3.788c-0.248-1.906-0.84-4.028-1.571-6.141c-3.057-8.531-8.497-16.844-14.857-23.891
		c-3.202-3.542-6.748-6.753-10.565-9.482c-1.987-1.386-3.754-2.464-6.072-3.665c-2-0.99-4.229-1.921-6.43-2.661
		c-4.427-1.509-9.071-2.304-13.657-2.254c-4.553,0.044-9.191,0.995-12.8,3.22c-1.791,1.067-3.281,2.484-4.021,3.881
		c-0.367,0.77-0.512,1.187-0.512,2.083l-0.015,3.744c0.042,5.013,0.138,10.026,0.402,15.015c0.267,4.984,0.632,9.958,1.262,14.79
		c0.316,2.406,0.703,4.793,1.232,6.979c0.262,1.088,0.576,2.127,0.912,2.936l0.443,0.848c0.071,0.151,0.159-0.079-0.728-0.594
		L209.753,431.853z M205.376,440.968l-0.039-0.02c-2.012-1.122-2.734-2.382-3.31-3.308c-0.546-0.961-0.868-1.794-1.145-2.588
		c-0.522-1.573-0.828-2.994-1.073-4.381c-0.485-2.773-0.728-5.41-0.909-8.037c-0.343-5.243-0.39-10.384-0.341-15.516
		c0.059-5.125,0.179-10.227,0.417-15.328l0.182-3.847c-0.013-1.637,0.551-3.725,1.377-5.185c1.7-3.063,4.173-5.087,6.699-6.602
		c10.335-5.763,22.104-5.381,32.451-2.298c2.614,0.804,5.096,1.739,7.669,2.921c2.23,1.009,4.9,2.381,7.13,3.783
		c4.597,2.896,8.794,6.287,12.604,10.035c7.584,7.543,14.08,16.06,18.531,26.351c1.096,2.598,2.021,5.337,2.538,8.438
		c0.386,3.093,0.907,6.65-1.251,11.046c-0.516,1.068-1.326,2.078-2.237,3.033c-0.596,0.529-1.247,1.024-1.919,1.461
		c-0.76,0.479-0.695,0.377-1.083,0.598l-0.421,0.216l-0.834,0.343l-0.298,0.112l-1.152,0.388l-2.173,0.598
		c-2.818,0.687-5.475,1.107-8.123,1.47c-10.53,1.338-20.807,1.466-31.127,1.029c-5.16-0.211-10.306-0.603-15.493-1.166
		c-2.595-0.289-5.197-0.622-7.853-1.083c-2.707-0.544-5.238-0.843-8.708-2.416L205.376,440.968z"/>
	<path style="fill:#0E0F0F;" d="M246.158,212.733c5.575-1.107,10.228-1.313,15.299-1.446c4.967-0.054,9.909,0.069,14.837,0.402
		c4.927,0.284,9.842,0.696,14.738,1.304c4.9,0.539,9.786,1.215,14.649,2.142c1.919,0.367,3.176,2.22,2.811,4.136
		c-0.313,1.646-1.723,2.803-3.324,2.872c-4.928,0.211-9.836,0.201-14.734,0.113c-4.9-0.024-9.786-0.196-14.661-0.417
		c-4.879-0.167-9.743-0.48-14.589-0.813c-4.739-0.343-9.919-0.887-14.143-1.323l-0.556-0.054c-1.923-0.201-3.323-1.916-3.124-3.842
		C243.522,214.242,244.693,213.022,246.158,212.733z"/>
	<path style="fill:#0E0F0F;" d="M222.631,374l-0.059-0.274c-0.299-1.419-1.602-8.284-1.602-19.973c0-1.338,0.017-2.736,0.056-4.196
		l-5.018-0.133c-0.039,1.508-0.057,2.95-0.057,4.329c0,13.786,1.757,21.236,1.799,21.408L222.631,374z"/>
	<path style="fill:#0E0F0F;" d="M207.648,381.363c-0.002,0.029-0.034,0.762-0.034,1.913c0.002,2.019,0.091,5.302,0.657,8.446
		c0.289,1.575,0.686,3.117,1.343,4.522c0.657,1.38,1.607,2.773,3.317,3.531c1.316,0.544,2.85,0.797,4.808,1.021
		c1.938,0.208,4.212,0.321,6.605,0.321c4.033-0.002,8.375-0.312,11.982-1.098c1.808-0.402,3.433-0.907,4.837-1.678
		c0.701-0.391,1.355-0.855,1.926-1.48c0.566-0.62,1.046-1.448,1.213-2.406c0.296-1.688,0.387-3.559,0.39-5.435
		c-0.005-4.986-0.681-10.015-0.686-10.073l-4.974,0.661c0,0,0.037,0.284,0.098,0.809c0.181,1.566,0.544,5.198,0.542,8.604
		c0.002,1.697-0.093,3.342-0.312,4.563l0.424,0.073l-0.382-0.198l-0.042,0.125l0.424,0.073l-0.382-0.198l0.049,0.024l-0.046-0.032
		l-0.002,0.008l0.049,0.024l-0.046-0.032c0,0.044-0.471,0.476-1.382,0.838c-2.744,1.184-8.581,1.838-13.677,1.812
		c-2.234,0.002-4.356-0.106-6.064-0.292c-1.688-0.17-3.053-0.487-3.374-0.645l-0.235-0.209c-0.566-0.556-1.326-2.761-1.622-5.128
		c-0.343-2.376-0.417-4.935-0.417-6.552c0-1.057,0.029-1.686,0.029-1.688L207.648,381.363z"/>
	<path style="fill:#0E0F0F;" d="M222.367,384.151c0,0.01-0.034,1.609-0.034,3.731c0,1.58,0.017,3.45,0.085,5.186
		c0.071,1.744,0.171,3.305,0.404,4.483c0.218,1.085,1.274,1.791,2.362,1.572c1.085-0.218,1.791-1.273,1.573-2.361
		c-0.145-0.698-0.267-2.211-0.328-3.853c-0.064-1.65-0.083-3.479-0.083-5.027c0-2.08,0.034-3.641,0.034-3.644
		c0.022-1.11-0.855-2.026-1.962-2.051C223.308,382.164,222.389,383.044,222.367,384.151z"/>
</g>
</svg>
