<?xml version="1.0" encoding="iso-8859-1"?>
<!-- Generator: Adobe Illustrator 15.1.0, SVG Export Plug-In . SVG Version: 6.00 Build 0)  -->
<!DOCTYPE svg PUBLIC "-//W3C//DTD SVG 1.1//EN" "http://www.w3.org/Graphics/SVG/1.1/DTD/svg11.dtd">
<svg version="1.1" id="_x31_" xmlns="http://www.w3.org/2000/svg" xmlns:xlink="http://www.w3.org/1999/xlink" x="0px" y="0px"
	 width="512px" height="512px" viewBox="0 0 512 512" style="enable-background:new 0 0 512 512;" xml:space="preserve">
<g>
	<path style="fill:#0E0F0F;" d="M395.022,454.013c5.67-14.605,11.511-28.597,16.12-42.933c4.741-14.259,7.836-28.898,8.985-43.563
		c1.161-14.662,0.282-29.384-2.894-43.734c-0.768-3.594-1.813-7.12-2.757-10.69c-0.888-3.574-0.633-7.635-1.563-11.335
		c-0.971-3.677-2.923-6.95-4.558-10.353c-1.703-3.373-3.634-6.64-5.638-9.864c-3.999-6.478-8.609-12.528-13.238-18.9
		c-2.323-3.259-4.688-6.356-7.003-10.634c-0.574-1.112-1.151-2.298-1.659-3.886c-0.448-1.581-1.065-3.612-0.482-6.817l0.958-3.604
		l0.796-2.813c4.126-14.829,8.699-29.564,12.609-44.413c7.904-29.608,14.77-59.805,15.049-90.239
		c-0.026-15.108-1.546-30.403-6.838-44.198c-2.708-6.838-6.182-13.25-10.455-18.835c-4.303-5.557-9.37-10.251-14.981-13.846
		c-5.576-3.634-11.83-6.13-18.34-7.165c-6.498-1-13.256-0.546-19.09,1.715c-5.63,2.132-9.811,6.015-12.384,11.715
		c-2.621,5.677-3.694,12.785-4.045,20.058c-0.637,14.682,1.282,30.138,2.531,45.689c1.293,15.596,2.744,31.395,1.721,47.635
		c-1,16.076-4.059,31.809-8.397,47.066c-4.372,15.285-9.705,30.092-16.694,44.489c-0.848,1.742-2.947,2.47-4.691,1.625
		c-1.661-0.809-2.401-2.754-1.732-4.445l0.063-0.164c11.288-28.391,18.783-58.926,19.876-89.105
		c0.432-14.961-1.477-30.314-3.317-45.716c-1.886-15.451-4.042-31.059-3.751-47.606c0.276-8.247,1.151-16.936,4.856-25.59
		c1.854-4.286,4.552-8.5,8.103-11.984c3.561-3.516,7.774-6.125,12.269-7.958c17.448-6.817,37.079-3.607,51.889,6.432
		c7.402,5.045,13.359,11.776,17.89,19.056c4.566,7.284,7.801,15.11,10.127,23.024c4.768,15.797,6.909,31.885,7.463,47.905
		c1.075,32.059-3.139,63.846-10.257,94.682c-3.694,15.404-7.953,30.606-13.474,45.439l-1.034,2.744l-0.536,1.362l-0.268,0.682
		l-0.135,0.34l0.098-0.424c0.172-1.284-0.109-1.331-0.041-1.046c0.018,0.292,0.201,0.912,0.448,1.563
		c1.073,2.756,3.026,6.182,4.896,9.495c3.869,6.701,7.782,13.724,11.484,20.814c1.855,3.55,3.609,7.164,5.359,10.781
		c1.82,3.593,3.094,7.419,5.096,10.952c2.039,3.512,5.003,6.773,6.537,10.61c1.478,3.842,2.563,7.826,3.624,11.81
		c4.173,15.976,5.496,32.779,3.933,49.187c-1.524,16.436-5.881,32.372-11.884,47.38c-6.128,14.966-14.277,29.009-24.591,41.179
		l-0.017,0.022c-1.272,1.499-3.519,1.683-5.018,0.414C394.854,457.01,394.493,455.388,395.022,454.013z"/>
	<path style="fill:#0E0F0F;" d="M252.507,213.512c-3.08-38.771-4.384-77.06-11.252-113.958
		c-3.582-18.299-8.299-36.428-16.745-52.153c-4.166-7.833-9.382-14.983-15.833-20.34c-6.412-5.354-14.216-8.73-22.349-8.815
		c-8.015,0.007-16.684,3.043-21.035,9.25c-4.472,6.263-5.964,15.659-4.778,24.759c1.372,9.145,3.651,18.345,5.814,27.686
		c2.225,9.296,4.894,18.737,6.812,28.575c3.584,19.479,5.991,38.966,6.929,58.668c0.453,9.852,0.642,19.731,0.262,29.755
		c-0.206,5.021-0.544,10.068-1.25,15.258c-0.358,2.604-0.826,5.241-1.529,7.998c-0.791,2.793-1.509,5.604-3.778,9.151
		c-0.96,1.502-2.372,2.541-3.942,3.058l-0.262,0.083c-1.838,0.603-4.606,1.793-6.907,2.933c-2.404,1.181-4.786,2.487-7.118,3.896
		c-4.675,2.811-9.169,6.008-13.457,9.485c-8.598,6.944-16.221,15.16-22.924,24.079c-6.709,8.922-12.487,18.592-17.39,28.721
		c-4.984,10.066-8.684,20.336-10.676,31.161c-1.97,10.795-2.742,21.885-1.967,32.955c0.787,11.067,2.879,22.032,5.755,32.869
		c2.835,10.849,6.802,21.58,12.342,31.555c5.54,9.973,12.795,18.979,21.053,26.855c16.426,15.965,37.185,26.871,58.891,33.053
		c10.732,3.119,22.091,4.46,33.407,5.705c11.352,1.083,22.772,1.7,34.208,1.798c22.865,0.149,45.769-2.002,68.034-6.904
		c22.203-5.006,43.885-12.811,63.271-25.029c1.639-1.044,3.815-0.562,4.858,1.078c0.968,1.519,0.611,3.511-0.751,4.621
		c-18.708,15.164-41.179,25.348-64.319,31.638c-23.196,6.365-47.224,9.048-71.152,9.046c-23.929-0.143-47.971-2.859-71.057-11.227
		c-22.794-8.272-43.467-21.712-60.444-38.611c-8.502-8.471-15.99-17.857-22.871-27.722c-6.89-9.862-12.977-20.455-17.578-31.8
		c-4.565-11.357-7.243-23.48-8.36-35.747c-1.078-12.261-0.799-24.754,1.544-36.974c2.227-12.227,6.466-24.208,11.967-35.067
		c5.346-10.911,11.675-21.405,19.085-31.157c7.392-9.764,15.912-18.722,25.375-26.678c4.753-3.955,9.774-7.623,15.091-10.913
		c2.656-1.647,5.391-3.193,8.221-4.629c2.94-1.458,5.513-2.7,9.218-3.974l-4.2,3.139c0.38-0.534,1.095-2.44,1.537-4.313
		c0.465-1.95,0.838-4.094,1.146-6.292c0.6-4.416,0.924-9.054,1.11-13.719c0.355-9.354,0.181-18.879-0.26-28.393
		c-0.973-19.023-2.367-38.204-5.249-56.965c-1.286-9.294-3.386-18.668-5.155-28.342c-1.859-9.612-3.371-19.494-3.303-29.714
		c0.022-5.096-0.078-10.254,0.598-15.576c0.696-5.283,2.281-10.818,5.496-15.733c3.186-4.917,7.924-8.88,13.016-11.354
		c1.264-0.642,2.548-1.176,3.969-1.722c1.063-0.397,2.587-0.919,3.891-1.262c2.72-0.747,5.521-1.193,8.341-1.411
		c11.349-0.917,22.748,2.965,31.745,9.269c9.115,6.295,16.152,14.682,21.819,23.5c11.134,17.887,17.213,37.65,20.953,57.318
		c3.771,19.722,5.071,39.608,4.891,59.325c-0.27,19.719-2.029,39.336-5.739,58.619c-0.357,1.926-2.205,3.195-4.131,2.84
		C253.793,216.418,252.642,215.058,252.507,213.512z"/>
	<path style="fill:#0E0F0F;" d="M201.14,337.974c-0.186-6.468,11.298-14.52,27.438-11.295c16.14,3.224,19.367,11.3,11.298,17.755
		c-8.068,6.453-15.351,8.148-24.208,8.065C206.81,352.415,201.327,344.443,201.14,337.974z"/>
	<path style="fill:#0E0F0F;" d="M309.278,326.679c-9.55-1.593-12.912-22.602,3.228-24.214
		C328.646,300.854,328.647,329.907,309.278,326.679z"/>
	<path style="fill:#0E0F0F;" d="M165.634,318.607c-9.686,0-16.14-19.367,0-22.597C181.774,292.781,178.547,318.607,165.634,318.607z
		"/>
	<path style="fill:#0E0F0F;" d="M200.271,211.277l0.201-0.176l-0.24,0.206l-0.062,0.064l0.204-0.554
		c0.149-0.476,0.279-1.078,0.387-1.691c0.22-1.24,0.367-2.578,0.473-3.93c0.216-2.705,0.287-5.483,0.306-8.262
		c0.025-5.572-0.198-11.183-0.544-16.789c-0.74-11.208-1.933-22.405-3.558-33.504c-0.833-5.547-1.808-11.065-2.972-16.524
		c-1.095-5.552-2.673-10.595-4.048-16.495c-1.271-5.748-2.151-11.639-2.078-17.784c0.068-3.078,0.346-6.219,1.37-9.531
		c0.549-1.652,1.245-3.376,2.656-5.097c1.293-1.69,3.984-3.401,6.782-3.273c2.737,0.079,4.689,1.23,6.214,2.313
		c1.509,1.132,2.705,2.372,3.751,3.631c2.083,2.534,3.658,5.18,5.072,7.855c2.778,5.332,4.81,10.84,6.633,16.421
		c3.492,11.124,5.888,22.435,7.625,33.809c3.129,22.763,4.68,45.79,1.514,68.837c-0.226,1.646-1.745,2.798-3.391,2.572
		c-1.556-0.215-2.671-1.583-2.6-3.121l0.007-0.118c1.098-22.184-0.625-44.795-3.945-66.896c-1.691-11.051-3.864-22.042-7.106-32.598
		c-1.646-5.214-3.528-10.408-5.956-15.167c-1.211-2.347-2.561-4.602-4.073-6.463c-1.389-1.882-3.516-3.244-3.876-3.092
		c-0.086,0.01-0.086-0.093-0.559,0.402c-0.417,0.465-0.88,1.392-1.218,2.426c-0.684,2.112-0.993,4.675-1.059,7.257
		c-0.113,5.214,0.617,10.639,1.759,15.966c1.146,5.165,2.872,10.997,3.925,16.598c1.151,5.65,2.104,11.32,2.908,17
		c1.629,11.364,2.634,22.777,3.061,34.235c0.213,5.729,0.304,11.467,0.137,17.245c-0.088,2.891-0.23,5.783-0.539,8.728
		c-0.154,1.475-0.348,2.96-0.659,4.509c-0.159,0.779-0.338,1.558-0.635,2.436c-0.147,0.431-0.331,0.901-0.593,1.416
		c-0.193,0.328-0.23,0.461-0.62,0.965l-0.578,0.618l-0.203,0.167c-1.279,1.068-3.176,0.897-4.242-0.382
		c-1.048-1.254-0.899-3.117,0.326-4.19L200.271,211.277z"/>
	<path style="fill:#0E0F0F;" d="M326.416,227.812c1.803-2.014,3.275-5.047,4.648-7.968c1.357-2.975,2.579-6.057,3.712-9.174
		c2.259-6.238,4.163-12.638,5.771-19.102c3.139-12.908,5.248-26.188,5.235-39.219c-0.054-13.363-1.679-26.639-2.227-40.498
		c-0.104-3.479-0.137-6.993,0.176-10.639c0.341-3.631,0.907-7.449,2.884-11.369c0.979-1.936,2.499-3.886,4.491-5.312
		c1.997-1.456,4.291-2.25,6.513-2.612c5.296-0.607,9.329,1.505,12.595,3.827c6.476,4.916,10.223,11.619,12.928,18.333
		c2.648,6.782,4.104,13.819,4.871,20.837c1.487,14.064,0.353,28.07-2.068,41.673c-5.045,27.222-14.878,53.072-27.121,77.413
		c-0.747,1.485-2.559,2.088-4.046,1.338c-1.411-0.71-2.012-2.406-1.429-3.847c10.154-24.899,19.382-50.259,23.952-76.433
		c2.219-13.04,3.425-26.306,2.072-39.219c-0.671-6.439-1.982-12.78-4.244-18.636c-2.247-5.788-5.56-11.295-9.973-14.608
		c-2.107-1.646-4.733-2.534-6.26-2.303c-2.281,0.402-3.686,1.323-4.822,3.47c-2.25,4.459-2.396,11.433-2.306,17.877
		c0.343,13.211,1.822,26.908,1.705,40.654c-0.13,14.089-2.603,27.727-6.191,41.026c-1.821,6.641-3.933,13.197-6.433,19.637
		c-1.254,3.219-2.606,6.405-4.131,9.561c-1.598,3.131-3.092,6.307-5.844,9.34c-1.117,1.23-3.021,1.323-4.254,0.206
		C325.397,230.953,325.315,229.042,326.416,227.812z"/>
	<path style="fill:#0E0F0F;" d="M246.159,212.733c5.574-1.107,10.227-1.313,15.299-1.446c4.966-0.054,9.909,0.069,14.836,0.402
		c4.927,0.284,9.843,0.696,14.738,1.304c4.9,0.539,9.786,1.215,14.649,2.142c1.919,0.367,3.176,2.22,2.812,4.136
		c-0.314,1.646-1.724,2.803-3.325,2.872c-4.928,0.211-9.836,0.201-14.734,0.113c-4.9-0.024-9.786-0.196-14.661-0.417
		c-4.879-0.167-9.743-0.48-14.589-0.813c-4.739-0.343-9.919-0.887-14.143-1.323l-0.556-0.054c-1.923-0.201-3.322-1.916-3.124-3.842
		C243.522,214.242,244.693,213.022,246.159,212.733z"/>
	<path style="fill:#0E0F0F;" d="M182.952,391.239c2.245,2.282,5.986,3.702,9.426,3.367c3.531-0.321,6.99-2.038,10.097-4.327
		c6.246-4.673,11.269-11.311,15.711-18.171l-0.301,0.51c0-0.135,0.341-1.429,0.434-2.271c0.137-0.966,0.233-1.973,0.292-3.002
		c0.103-2.055,0.13-4.175-0.037-6.312c-0.255-4.271-0.941-8.588-1.862-12.866c-0.686-3.181,1.335-6.316,4.516-7.002
		c3.18-0.687,6.314,1.337,7,4.518l0.132,1.112c0.123,4.729,0.132,9.47-0.149,14.27c-0.174,2.399-0.355,4.817-0.742,7.268
		c-0.191,1.229-0.429,2.463-0.738,3.723c-0.377,1.372-0.556,2.301-1.46,4.248l-0.135,0.289l-0.169,0.224
		c-5.28,6.951-11.117,13.766-18.891,18.778c-3.876,2.438-8.426,4.396-13.427,4.518c-5.023,0.153-9.97-1.685-13.528-5.633
		c-0.926-1.029-0.843-2.609,0.184-3.535c0.998-0.899,2.521-0.848,3.458,0.101L182.952,391.239z"/>
	<path style="fill:#0E0F0F;" d="M226.557,371.689c2.337,3.839,4.513,7.005,7.25,9.992c2.668,2.945,5.873,5.425,9.524,7.052
		c7.252,3.303,15.937,3.646,23.468,0.259l0.032-0.014c1.267-0.571,2.757-0.006,3.325,1.262c0.515,1.146,0.1,2.475-0.921,3.139
		c-4.145,2.702-9.076,4.322-14.084,4.6c-5.003,0.311-10.125-0.48-14.763-2.497c-4.638-1.976-8.912-4.93-12.251-8.733
		c-3.291-3.756-5.636-8.609-6.275-13.295l-0.015-0.09c-0.191-1.397,0.787-2.687,2.183-2.877
		C225.067,370.344,226.044,370.849,226.557,371.689z"/>
	<path style="fill:#0E0F0F;" d="M134.339,362.527c1.402-0.994,2.318-1.783,3.573-2.983c0.882-0.61,1.764-1.221,2.646-1.833
		c3.479,1.77,3.71,3.66,0.696,5.672c-2.688,3.01,3.185,3.511,4.974,2.117c4.109-3.207,12.45-10.244,17.946-7.416
		c2.328,1.194,8.438-2.029,5.307-3.643c-9.223-4.74-20.523,2.895-27.629,8.437c1.661,0.706,3.317,1.412,4.974,2.118
		c2.543-2.849,6.752-9.049,0.995-11.215c-7.569-2.848-12.281,2.173-17.857,6.125C126.2,362.577,131.875,364.272,134.339,362.527z"/>
	<path style="fill:#0E0F0F;" d="M309.029,364.233c2.811-1.333,4.182-1.778,3.967,2.19c-0.143,2.645,3.33,2.426,4.949,1.774
		c7.821-3.144,15.54-8.449,24.279-5.668c2.943,0.938,8.003-3.308,3.906-4.611c-11.433-3.642-20.824,2.051-31.204,6.226
		c1.649,0.591,3.298,1.184,4.95,1.774c0.504-9.291-7.285-8.864-13.866-5.738C301.815,362.17,305.557,365.882,309.029,364.233z"/>
</g>
</svg>
